# xmcd
#
# Track frame offsets:
# 150
# 17995
# 35707
#
# Disc length: 620 seconds
#
#
# Revision: 1
# Processed by: cddbd v1.5.2PL0 Copyright (c) Steve Scherf et al.
# Submitted via: FreeRIP 2.945 
#
DISCID=21026a03
DTITLE=Katie Melua - Spider's Web
DYEAR=2006
DGENRE=Easy Listening
TTITLE0=Katie Melua . Spider's Web (Single Version)
TTITLE1=Katie Melua - Spider's Web (Album Remix)
TTITLE2=Katie Melua - Cry Baby Cry
EXTD=
EXTT0=
EXTT1=
EXTT2=
PLAYORDER=
